<svg width="57" height="57" viewBox="0 0 57 57" xmlns="http://www.w3.org/2000/svg">
<path d="M57 29.7172C57 13.5973 44.2338 0.537598 28.5 0.537598C12.7555 0.537598 0 13.5973 0 29.7172C0 44.2779 10.4185 56.3509 24.0469 58.5376V38.1538H16.8097V29.7191H24.0469V23.2868C24.0469 15.9755 28.2952 11.9377 34.8074 11.9377C37.9264 11.9377 41.1914 12.5067 41.1914 12.5067V19.6867H37.5915C34.0575 19.6867 32.9531 21.939 32.9531 24.2461V29.7172H40.8565L39.5865 38.152H32.9531V58.5358C46.5708 56.3491 57 44.2761 57 29.7154V29.7172Z" />
</svg>
