<svg width="60" height="59" viewBox="0 0 60 59" xmlns="http://www.w3.org/2000/svg">
<path d="M30 0.529297C13.433 0.529297 0 13.5146 0 29.5293C0 45.544 13.433 58.5293 30 58.5293C46.567 58.5293 60 45.544 60 29.5293C60 13.5146 46.567 0.529297 30 0.529297ZM44.4174 22.3893C44.4375 22.6936 44.4375 23.0108 44.4375 23.3215C44.4375 32.8242 36.9509 43.7704 23.2701 43.7704C19.0513 43.7704 15.1406 42.5858 11.846 40.5467C12.4487 40.6114 13.0246 40.6373 13.6406 40.6373C17.1228 40.6373 20.3237 39.498 22.875 37.569C19.6071 37.5043 16.8616 35.4329 15.9241 32.5847C17.0692 32.7465 18.1004 32.7465 19.279 32.4552C17.5964 32.1247 16.084 31.2414 14.9988 29.9551C13.9136 28.6689 13.3225 27.0592 13.3259 25.3994V25.3088C14.3103 25.846 15.4688 26.1762 16.6808 26.2215C15.6619 25.5651 14.8263 24.6757 14.2481 23.6324C13.6699 22.589 13.3669 21.4239 13.3661 20.2402C13.3661 18.9003 13.7277 17.6768 14.3772 16.6152C16.2449 18.8377 18.5754 20.6554 21.2174 21.9502C23.8594 23.245 26.7536 23.9879 29.7121 24.1306C28.6607 19.2434 32.4375 15.2882 36.9777 15.2882C39.1205 15.2882 41.0491 16.1556 42.4085 17.5539C44.0893 17.2496 45.6964 16.6411 47.1295 15.8255C46.5737 17.4891 45.4085 18.8938 43.8616 19.7806C45.3616 19.6253 46.808 19.2239 48.1473 18.6608C47.1362 20.0978 45.8705 21.373 44.4174 22.3893Z" />
</svg>
