<svg width="58" height="58" viewBox="0 0 58 58" xmlns="http://www.w3.org/2000/svg">
<path d="M29 0C12.9835 0 0 12.9835 0 29C0 45.0165 12.9835 58 29 58C45.0165 58 58 45.0165 58 29C58 12.9835 45.0165 0 29 0ZM40.1529 32.7186C40.1529 32.7186 42.7176 35.2501 43.349 36.4252C43.3671 36.4494 43.3761 36.4735 43.3822 36.4856C43.639 36.9176 43.6994 37.2529 43.5725 37.5036C43.361 37.9205 42.636 38.1259 42.3883 38.1441H37.8571C37.5429 38.1441 36.8844 38.0625 36.0869 37.5127C35.4736 37.0837 34.8695 36.3799 34.2804 35.6942C33.4014 34.6731 32.6401 33.791 31.8728 33.791C31.7754 33.7909 31.6785 33.8062 31.5858 33.8364C31.0058 34.0236 30.2627 34.8514 30.2627 37.0566C30.2627 37.7453 29.719 38.141 29.3353 38.141H27.26C26.5531 38.141 22.8707 37.8933 19.6082 34.4526C15.6147 30.2385 12.0199 21.7862 11.9897 21.7077C11.7631 21.1609 12.2314 20.8679 12.7419 20.8679H17.3184C17.9286 20.8679 18.128 21.2395 18.267 21.5687C18.4301 21.9524 19.0282 23.4779 20.01 25.1938C21.602 27.991 22.5777 29.1269 23.3601 29.1269C23.5068 29.1251 23.6509 29.0878 23.78 29.0181C24.801 28.4502 24.6107 24.8101 24.5654 24.0549C24.5654 23.9129 24.5624 22.4267 24.0398 21.7137C23.6652 21.1972 23.0278 21.0008 22.6411 20.9283C22.7976 20.7124 23.0038 20.5373 23.2423 20.4178C23.9431 20.0674 25.2058 20.016 26.4595 20.016H27.1573C28.5167 20.0342 28.8671 20.1218 29.3595 20.2456C30.3564 20.4843 30.3775 21.1277 30.2899 23.3299C30.2627 23.9552 30.2355 24.6621 30.2355 25.4958C30.2355 25.6771 30.2265 25.8704 30.2265 26.0758C30.1963 27.1966 30.16 28.4683 30.9515 28.9909C31.0547 29.0557 31.174 29.0902 31.2958 29.0906C31.5707 29.0906 32.3984 29.0906 34.6399 25.2451C35.3312 24.0073 35.9319 22.7211 36.4373 21.3966C36.4826 21.318 36.6155 21.0764 36.7726 20.9827C36.8885 20.9236 37.0171 20.8935 37.1472 20.8951H42.5273C43.1133 20.8951 43.5151 20.9827 43.5906 21.2093C43.7235 21.5687 43.5665 22.6653 41.1105 25.9912L40.014 27.4382C37.7876 30.3564 37.7876 30.5044 40.1529 32.7186Z" />
</svg>
