<svg xmlns="http://www.w3.org/2000/svg" xmlns:xlink="http://www.w3.org/1999/xlink"><symbol id="fb" viewBox="0 0 57 57"><path d="M57 29.717C57 13.597 44.234.537 28.5.537 12.755.538 0 13.598 0 29.718c0 14.56 10.418 26.634 24.047 28.82V38.155H16.81V29.72h7.237v-6.432c0-7.311 4.248-11.35 10.76-11.35 3.12 0 6.384.57 6.384.57v7.18h-3.6c-3.534 0-4.638 2.252-4.638 4.56v5.47h7.903l-1.27 8.435h-6.633v20.384C46.571 56.349 57 44.276 57 29.716v.001z"/></symbol><symbol id="ok" viewBox="0 0 97.75 97.75"><path d="M48.921 40.507a8.367 8.367 0 008.367-8.443c-.017-4.679-3.742-8.402-8.411-8.406a8.398 8.398 0 00-8.432 8.508c.035 4.66 3.794 8.358 8.476 8.341z"/><path d="M48.875 0C21.882 0 0 21.883 0 48.875S21.882 97.75 48.875 97.75 97.75 75.867 97.75 48.875 75.868 0 48.875 0zm.07 14.863c9.52.026 17.161 7.813 17.112 17.438-.048 9.403-7.814 17.024-17.318 16.992-9.407-.032-17.122-7.831-17.066-17.253.053-9.525 7.772-17.203 17.272-17.177zm19.282 41.194c-2.105 2.161-4.639 3.725-7.453 4.816-2.66 1.031-5.575 1.55-8.461 1.896.437.474.642.707.914.979 3.916 3.937 7.851 7.854 11.754 11.802 1.33 1.346 1.607 3.014.875 4.577-.799 1.71-2.592 2.834-4.351 2.713-1.114-.077-1.983-.63-2.754-1.407-2.956-2.974-5.968-5.895-8.862-8.925-.845-.882-1.249-.714-1.994.052a589.856 589.856 0 01-9.034 9.072c-1.365 1.346-2.989 1.59-4.573.82-1.683-.814-2.753-2.533-2.671-4.262.058-1.166.632-2.06 1.434-2.858 3.877-3.869 7.742-7.75 11.608-11.628.257-.257.495-.53.868-.93-5.273-.551-10.028-1.849-14.099-5.032-.506-.396-1.027-.778-1.487-1.222-1.783-1.711-1.962-3.672-.553-5.69 1.207-1.728 3.231-2.19 5.336-1.197.408.191.796.433 1.168.689 7.586 5.213 18.008 5.356 25.624.233.754-.576 1.561-1.05 2.496-1.289 1.816-.468 3.512.201 4.486 1.791 1.115 1.817 1.102 3.589-.271 5z"/></symbol><symbol id="tw" viewBox="0 0 60 59"><path d="M30 .53c-16.567 0-30 12.985-30 29 0 16.014 13.433 29 30 29s30-12.986 30-29c0-16.015-13.433-29-30-29zm14.417 21.86c.02.304.02.62.02.931 0 9.503-7.486 20.45-21.167 20.45-4.219 0-8.13-1.185-11.424-3.224.603.064 1.179.09 1.795.09 3.482 0 6.683-1.139 9.234-3.068-3.268-.065-6.013-2.136-6.95-4.984 1.144.161 2.175.161 3.354-.13a7.48 7.48 0 01-4.28-2.5 7.039 7.039 0 01-1.673-4.556v-.09a7.638 7.638 0 003.355.912 7.288 7.288 0 01-2.433-2.589 7.004 7.004 0 01-.882-3.392 6.87 6.87 0 011.011-3.625 20.996 20.996 0 006.84 5.335 21.685 21.685 0 008.495 2.18c-1.051-4.887 2.726-8.842 7.266-8.842 2.142 0 4.071.868 5.43 2.266a15.009 15.009 0 004.721-1.728 7.206 7.206 0 01-3.267 3.955 15.11 15.11 0 004.285-1.12 15.313 15.313 0 01-3.73 3.728z"/></symbol><symbol id="vk" viewBox="0 0 58 58"><path d="M29 0C12.983 0 0 12.983 0 29s12.983 29 29 29 29-12.983 29-29S45.017 0 29 0zm11.153 32.719s2.565 2.531 3.196 3.706c.018.024.027.049.033.06.257.433.317.768.19 1.019-.211.416-.936.622-1.184.64h-4.53c-.315 0-.974-.081-1.771-.631-.613-.43-1.218-1.133-1.807-1.819-.879-1.02-1.64-1.903-2.407-1.903a.924.924 0 00-.287.045c-.58.188-1.323 1.015-1.323 3.22 0 .69-.544 1.085-.928 1.085H27.26c-.707 0-4.39-.248-7.652-3.688-3.993-4.215-7.588-12.667-7.618-12.745-.227-.547.241-.84.752-.84h4.576c.61 0 .81.372.949.7.163.384.761 1.91 1.743 3.626 1.592 2.797 2.568 3.933 3.35 3.933a.907.907 0 00.42-.109c1.021-.568.83-4.208.785-4.963 0-.142-.003-1.628-.525-2.341-.375-.517-1.012-.713-1.399-.786.157-.216.363-.39.601-.51.701-.35 1.964-.402 3.217-.402h.698c1.36.018 1.71.106 2.203.23.996.238 1.018.882.93 3.084a48.014 48.014 0 00-.055 2.166c0 .181-.008.374-.008.58-.03 1.12-.067 2.392.724 2.915a.65.65 0 00.345.1c.275 0 1.102 0 3.344-3.846a29.357 29.357 0 001.797-3.848c.046-.079.178-.32.336-.414a.803.803 0 01.374-.088h5.38c.586 0 .988.088 1.064.314.133.36-.025 1.456-2.48 4.782l-1.097 1.447c-2.226 2.918-2.226 3.066.139 5.28z"/></symbol></svg>